<?xml version="1.0" encoding="utf-8"?>
<!-- Generator: Adobe Illustrator 19.0.0, SVG Export Plug-In . SVG Version: 6.00 Build 0)  -->
<svg version="1.1" baseProfile="basic" id="Layer_1"
	 xmlns="http://www.w3.org/2000/svg" xmlns:xlink="http://www.w3.org/1999/xlink" x="0px" y="0px" width="511.1px" height="269px"
	 viewBox="0 0 511.1 269" xml:space="preserve">
<style type="text/css">
	.st0{fill:#525151;}
</style>
<g id="XMLID_1_">
	<path id="XMLID_106_" class="st0" d="M162.7,210.9h-27.4l6-53.3c0.4-3.2-2-6.1-5.2-6.5c-3.2-0.4-6.1,2-6.5,5.2l-6.8,59.9
		c-0.2,1.7,0.3,3.3,1.5,4.6c1.1,1.2,2.7,2,4.4,2h34c3.3,0,5.9-2.6,5.9-5.9C168.6,213.6,166,210.9,162.7,210.9z"/>
	<path id="XMLID_302_" class="st0" d="M500.9,132.5l-58.1-65.6c-1.1-1.3-2.7-2-4.4-2h-82.6l5.4-47.5c0.2-1.7-0.3-3.3-1.5-4.6
		c-1.1-1.2-2.7-2-4.4-2H151.3c-3,0-5.5,2.3-5.8,5.2l-5,44.1c-0.4,3.2,2,6.1,5.2,6.5c3.2,0.4,6.1-2,6.5-5.2l4.4-38.9h192.2
		l-21.2,188.4h-59.8c-3.3,0-5.9,2.6-5.9,5.9c0,3.3,2.6,5.9,5.9,5.9h65.1c0.1,0,0.3,0,0.4,0c0.2,0,0.4,0,0.6,0h14.3
		c3.3,0,5.9-2.6,5.9-5.9c0-3.3-2.6-5.9-5.9-5.9h-7.7L356,76.6h79.7l54.6,61.7l-8.4,72.6h-29.8c-3.3,0-5.9,2.6-5.9,5.9
		c0,3.3,2.6,5.9,5.9,5.9h35c3,0,5.5-2.2,5.8-5.2l9.3-80.5C502.5,135.4,502,133.7,500.9,132.5z"/>
	<path id="XMLID_305_" class="st0" d="M448.2,154.1l4.3-27.2c0.3-1.7-0.2-3.5-1.4-4.8l-26.7-30.2c-1.1-1.3-2.7-2-4.4-2h-40.3
		c-2.9,0-5.4,2.2-5.8,5.1l-7.8,57.4c-0.2,1.7,0.3,3.4,1.4,4.7c1.1,1.3,2.7,2,4.4,2h70.6C445.3,159,447.8,156.9,448.2,154.1z
		 M437.4,147.3h-58.8l6.2-45.7h32.5l23.1,26.2L437.4,147.3z"/>
	<path id="XMLID_309_" class="st0" d="M215.7,189.4c-20.8,0-37.8,16.9-37.8,37.8s16.9,37.8,37.8,37.8s37.8-16.9,37.8-37.8
		S236.5,189.4,215.7,189.4z M215.7,253.2c-14.3,0-26-11.7-26-26s11.7-26,26-26c14.3,0,26,11.7,26,26S230,253.2,215.7,253.2z"/>
	<path id="XMLID_312_" class="st0" d="M399.2,189.4c-20.8,0-37.8,16.9-37.8,37.8s16.9,37.8,37.8,37.8S437,248,437,227.2
		S420,189.4,399.2,189.4z M399.2,253.2c-14.3,0-26-11.7-26-26s11.7-26,26-26s26,11.7,26,26S413.6,253.2,399.2,253.2z"/>
	<path id="XMLID_313_" class="st0" d="M97.7,133.5H16.3c-3.7,0-6.7,2.8-6.7,6.2c0,3.4,3,6.2,6.7,6.2h81.4c3.7,0,6.7-2.7,6.7-6.2
		C104.4,136.3,101.4,133.5,97.7,133.5z"/>
	<path id="XMLID_315_" class="st0" d="M111.5,105.5l-81.4-0.4H30c-3.7,0-6.7,2.7-6.7,6.1c-0.1,3.5,3,6.2,6.6,6.2l81.4,0.4
		c3.7,0,6.7-2.7,6.8-6.1C118.2,108.3,115.2,105.5,111.5,105.5z"/>
	<path id="XMLID_316_" class="st0" d="M43.6,89.4H125c3.7,0,6.7-2.8,6.7-6.2c0-3.4-3-6.2-6.7-6.2H43.6c-3.7,0-6.7,2.8-6.7,6.2
		C36.9,86.7,39.9,89.4,43.6,89.4z"/>
	<polygon id="XMLID_336_" class="st0" points="191.5,65.4 191.5,107.5 198.7,107.5 198.7,88.2 216,88.2 216,107.5 223.2,107.5 
		223.2,65.4 216,65.4 216,81.4 198.7,81.4 198.7,65.4 	"/>
	<rect id="XMLID_337_" x="229.5" y="80.3" class="st0" width="7" height="27.2"/>
	<polygon id="XMLID_339_" class="st0" points="266.4,107.5 266.4,100.7 251.1,100.7 268.7,80.3 241.6,80.3 241.6,87 254.2,87 
		236.5,107.5 	"/>
	<rect id="XMLID_340_" x="268.8" y="61.8" class="st0" width="7.1" height="45.7"/>
	<rect id="XMLID_342_" x="281" y="80.3" class="st0" width="7" height="27.2"/>
	<polygon id="XMLID_343_" class="st0" points="173.1,110.6 173.1,152.6 180.2,152.6 180.2,135.6 195.4,152.6 205.1,152.6 185,130.3 
		204.8,110.6 194.9,110.6 180.2,125.4 180.2,110.6 	"/>
	<path id="XMLID_347_" class="st0" d="M228.7,152.6v-27.2h-7.1v1.6c-0.2-0.2-0.4-0.3-0.7-0.5c-0.8-0.5-1.7-0.9-2.7-1.2
		c-1.1-0.3-2.2-0.5-3.6-0.5c-1.7,0-3.4,0.3-5,0.9c-1.6,0.6-3,1.5-4.2,2.7c-1.2,1.2-2.2,2.7-2.9,4.4c-0.7,1.7-1.1,3.8-1.1,6.1
		c0,2.3,0.4,4.4,1.1,6.2c0.7,1.8,1.7,3.3,2.9,4.5c1.2,1.2,2.7,2.1,4.3,2.8c1.6,0.6,3.2,0.9,4.9,0.9c1.2,0,2.3-0.1,3.3-0.4
		c1-0.3,1.9-0.7,2.7-1.1c0.3-0.2,0.7-0.4,1-0.6v1.5H228.7z M221.3,142.1L221.3,142.1c-0.3,0.9-0.7,1.7-1.3,2.4
		c-0.6,0.7-1.3,1.2-2.1,1.6c-0.8,0.4-1.7,0.6-2.8,0.6c-1,0-2-0.2-2.8-0.6c-0.8-0.4-1.5-0.9-2-1.6c-0.6-0.7-1-1.5-1.3-2.4
		c-0.3-1-0.5-2.1-0.5-3.2c0-1.3,0.2-2.5,0.6-3.4c0.4-1,0.9-1.8,1.5-2.4c0.6-0.6,1.2-1.1,2-1.4c0.8-0.3,1.6-0.5,2.5-0.5
		c0.8,0,1.6,0.1,2.4,0.4c0.8,0.3,1.5,0.7,2.1,1.3c0.6,0.6,1.2,1.4,1.6,2.4c0.4,1,0.6,2.1,0.6,3.5
		C221.8,140.1,221.6,141.1,221.3,142.1z"/>
	<path id="XMLID_349_" class="st0" d="M233.9,152.6h7.1v-14.3c0-2.3,0.2-3.5,0.4-4c0.3-1,0.6-1.5,0.8-1.7c0.2-0.3,0.5-0.5,0.8-0.7
		c0.3-0.2,0.8-0.3,1.4-0.3c0.1,0,0.4,0,0.7,0.1c0.3,0.1,0.6,0.2,0.9,0.5l1.3,0.9l3.3-6.5l-1.3-0.6c-0.6-0.3-1.3-0.6-2-0.8
		c-1.7-0.5-3.6-0.5-5.1,0.2c-0.5,0.2-0.9,0.5-1.3,0.7v-0.7h-7.1V152.6z"/>
	<path id="XMLID_353_" class="st0" d="M268.8,164.6c1.8-1,3.3-2.2,4.3-3.6c0.7-0.9,1.2-1.8,1.5-2.8c0.3-0.9,0.6-1.9,0.8-2.7
		c0.2-0.9,0.3-1.8,0.3-2.6c0-0.8,0-1.5,0-2.2v-25.2h-7.1v1.6c-0.5-0.3-1-0.7-1.5-0.9c-1.6-0.8-3.4-1.2-5.4-1.2c-1.8,0-3.5,0.3-5.1,1
		c-1.6,0.7-3,1.6-4.1,2.7c-1,1-1.9,2.4-2.7,4c-0.8,1.7-1.2,3.9-1.2,6.5c0,2.7,0.4,4.9,1.3,6.7c0.8,1.7,1.7,3,2.6,4
		c1.1,1.1,2.4,2,3.9,2.6c1.6,0.7,3.4,1.1,5.4,1.1c1.2,0,2.3-0.1,3.3-0.4c1-0.3,1.9-0.7,2.7-1.1c0.3-0.2,0.7-0.4,1-0.6v0.2
		c0,1-0.1,1.9-0.2,2.9c-0.1,0.9-0.4,1.7-1,2.6c-1.1,1.8-2.8,2.7-5.2,2.7c-0.8,0-1.7-0.1-2.6-0.4c-0.8-0.2-1.5-0.7-2.3-1.5
		c-0.4-0.5-0.8-1.1-1.1-1.8c-0.3-0.7-0.4-1.5-0.4-2.3v-1.4h-7v1.4c0,2,0.4,3.8,1.1,5.3c0.7,1.4,1.5,2.6,2.5,3.6
		c0.9,0.9,2.2,1.8,3.8,2.5c1.6,0.8,3.6,1.2,5.9,1.2C264.7,166.1,266.9,165.6,268.8,164.6z M268.1,142.5c-0.4,1.1-1,1.9-1.7,2.6
		c-1.1,1.1-2.5,1.6-4.3,1.6c-0.9,0-1.7-0.1-2.4-0.4c-0.7-0.3-1.3-0.7-1.8-1.2c-1-0.9-1.6-1.9-1.9-2.9c-0.3-1.2-0.5-2.3-0.5-3.2
		c0-0.9,0.1-1.9,0.4-3c0.2-1,0.8-1.9,1.6-2.8c0.5-0.5,1.1-0.9,1.9-1.3c0.7-0.4,1.6-0.5,2.6-0.5c0.9,0,1.8,0.2,2.5,0.5
		c0.8,0.3,1.4,0.8,2,1.3c0.6,0.6,1.1,1.4,1.5,2.4c0.4,1,0.6,2.2,0.6,3.5C268.8,140.3,268.6,141.5,268.1,142.5z"/>
	<path id="XMLID_363_" class="st0" d="M279.4,139.1c0,2,0.4,3.9,1.1,5.7c0.7,1.7,1.7,3.3,3,4.5c1.3,1.3,2.8,2.3,4.6,3
		c1.8,0.7,3.7,1.1,5.7,1.1c2,0,3.9-0.4,5.7-1.1c1.7-0.7,3.3-1.7,4.6-3c1.3-1.3,2.3-2.8,3-4.5c0.7-1.7,1.1-3.6,1.1-5.7
		c0-2-0.4-3.9-1.1-5.7c-0.7-1.7-1.7-3.3-3-4.5c-1.3-1.3-2.8-2.3-4.5-3c-1.7-0.7-3.7-1.1-5.7-1.1c-2.1,0-4,0.4-5.7,1.1
		c-1.7,0.7-3.3,1.7-4.5,3c-1.3,1.3-2.3,2.8-3,4.5C279.7,135.2,279.4,137.1,279.4,139.1z M287.1,135.7c0.4-1,0.9-1.8,1.6-2.4
		c0.7-0.6,1.4-1.1,2.3-1.4c0.9-0.3,1.8-0.5,2.7-0.5c0.9,0,1.8,0.2,2.7,0.5c0.9,0.3,1.6,0.8,2.3,1.4c0.7,0.6,1.2,1.4,1.6,2.4
		c0.4,1,0.6,2.1,0.6,3.4c0,1.3-0.2,2.4-0.6,3.4c-0.4,1-1,1.8-1.6,2.4c-0.6,0.6-1.4,1.1-2.3,1.4c-1.8,0.7-3.7,0.7-5.4,0
		c-0.8-0.3-1.6-0.8-2.3-1.4c-0.7-0.6-1.2-1.4-1.6-2.4c-0.4-1-0.6-2.1-0.6-3.4C286.5,137.8,286.7,136.6,287.1,135.7z"/>
</g>
</svg>
